<svg width="265" height="265" viewBox="0 0 265 265" fill="none" xmlns="http://www.w3.org/2000/svg">
<rect width="265" height="265" fill="white"/>
<path d="M217 27H49C37.402 27 28 36.402 28 48V66C28 77.598 37.402 87 49 87H217C228.598 87 238 77.598 238 66V48C238 36.402 228.598 27 217 27Z" fill="white" stroke="#262626" stroke-width="10"/>
<path d="M197 107H69C57.402 107 48 116.402 48 128V216C48 227.598 57.402 237 69 237H197C208.598 237 218 227.598 218 216V128C218 116.402 208.598 107 197 107Z" fill="#262626" stroke="#262626" stroke-width="10"/>
</svg>
