<svg width="265" height="265" viewBox="0 0 265 265" fill="none" xmlns="http://www.w3.org/2000/svg">
<rect width="265" height="265" fill="white"/>
<path d="M79 27H58C46.402 27 37 36.402 37 48V216C37 227.598 46.402 237 58 237H79C90.598 237 100 227.598 100 216V48C100 36.402 90.598 27 79 27Z" fill="#262626" stroke="#262626" stroke-width="10"/>
<path d="M228 216V48C228 36.402 218.598 27 207 27C195.402 27 186 36.402 186 48V216C186 227.598 195.402 237 207 237C218.598 237 228 227.598 228 216Z" fill="white" stroke="#262626" stroke-width="10"/>
<path d="M164 216V48C164 36.402 154.598 27 143 27C131.402 27 122 36.402 122 48V216C122 227.598 131.402 237 143 237C154.598 237 164 227.598 164 216Z" fill="white" stroke="#262626" stroke-width="10"/>
</svg>
