<svg width="265" height="265" viewBox="0 0 265 265" fill="none" xmlns="http://www.w3.org/2000/svg">
<rect width="265" height="265" fill="white"/>
<path d="M101 31H53C41.402 31 32 40.402 32 52V100C32 111.598 41.402 121 53 121H101C112.598 121 122 111.598 122 100V52C122 40.402 112.598 31 101 31Z" fill="#262626" stroke="#262626" stroke-width="10"/>
<path d="M213 31H165C153.402 31 144 40.402 144 52V100C144 111.598 153.402 121 165 121H213C224.598 121 234 111.598 234 100V52C234 40.402 224.598 31 213 31Z" fill="white" stroke="#262626" stroke-width="10"/>
<path d="M213 143H165C153.402 143 144 152.402 144 164V212C144 223.598 153.402 233 165 233H213C224.598 233 234 223.598 234 212V164C234 152.402 224.598 143 213 143Z" fill="white" stroke="#262626" stroke-width="10"/>
<path d="M101 143H53C41.402 143 32 152.402 32 164V212C32 223.598 41.402 233 53 233H101C112.598 233 122 223.598 122 212V164C122 152.402 112.598 143 101 143Z" fill="white" stroke="#262626" stroke-width="10"/>
</svg>
