<svg width="265" height="265" viewBox="0 0 265 265" fill="none" xmlns="http://www.w3.org/2000/svg">
<rect width="265" height="265" fill="white"/>
<path d="M216 28H48C36.402 28 27 37.402 27 49V217C27 228.598 36.402 238 48 238H216C227.598 238 237 228.598 237 217V49C237 37.402 227.598 28 216 28Z" fill="#262626" stroke="#262626" stroke-width="10"/>
<path d="M41 122C41 119.791 42.7909 118 45 118H87C89.2091 118 91 119.791 91 122V138C91 140.209 89.2091 142 87 142H45C42.7909 142 41 140.209 41 138V122Z" fill="white"/>
<path d="M41 162C41 159.791 42.7909 158 45 158H87C89.2091 158 91 159.791 91 162V178C91 180.209 89.2091 182 87 182H45C42.7909 182 41 180.209 41 178V162Z" fill="white"/>
<path d="M41 202C41 199.791 42.7909 198 45 198H87C89.2091 198 91 199.791 91 202V218C91 220.209 89.2091 222 87 222H45C42.7909 222 41 220.209 41 218V202Z" fill="white"/>
<path d="M107 122C107 119.791 108.791 118 111 118H153C155.209 118 157 119.791 157 122V138C157 140.209 155.209 142 153 142H111C108.791 142 107 140.209 107 138V122Z" fill="white"/>
<path d="M107 162C107 159.791 108.791 158 111 158H153C155.209 158 157 159.791 157 162V178C157 180.209 155.209 182 153 182H111C108.791 182 107 180.209 107 178V162Z" fill="white"/>
<path d="M107 202C107 199.791 108.791 198 111 198H153C155.209 198 157 199.791 157 202V218C157 220.209 155.209 222 153 222H111C108.791 222 107 220.209 107 218V202Z" fill="white"/>
<path d="M173 122C173 119.791 174.791 118 177 118H219C221.209 118 223 119.791 223 122V138C223 140.209 221.209 142 219 142H177C174.791 142 173 140.209 173 138V122Z" fill="white"/>
<path d="M173 162C173 159.791 174.791 158 177 158H219C221.209 158 223 159.791 223 162V178C223 180.209 221.209 182 219 182H177C174.791 182 173 180.209 173 178V162Z" fill="white"/>
<path d="M173 202C173 199.791 174.791 198 177 198H219C221.209 198 223 199.791 223 202V218C223 220.209 221.209 222 219 222H177C174.791 222 173 220.209 173 218V202Z" fill="white"/>
</svg>
