<svg width="265" height="265" viewBox="0 0 265 265" fill="none" xmlns="http://www.w3.org/2000/svg">
<rect width="265" height="265" fill="white"/>
<path d="M74 24H46C34.402 24 25 33.402 25 45V73C25 84.598 34.402 94 46 94H74C85.598 94 95 84.598 95 73V45C95 33.402 85.598 24 74 24Z" fill="white" stroke="#262626" stroke-width="10"/>
<path d="M147 97H119C107.402 97 98 106.402 98 118V146C98 157.598 107.402 167 119 167H147C158.598 167 168 157.598 168 146V118C168 106.402 158.598 97 147 97Z" fill="white" stroke="#262626" stroke-width="10"/>
<path d="M74 24H46C34.402 24 25 33.402 25 45V73C25 84.598 34.402 94 46 94H74C85.598 94 95 84.598 95 73V45C95 33.402 85.598 24 74 24Z" fill="#262626" stroke="#262626" stroke-width="10"/>
<path d="M147 97H119C107.402 97 98 106.402 98 118V146C98 157.598 107.402 167 119 167H147C158.598 167 168 157.598 168 146V118C168 106.402 158.598 97 147 97Z" fill="white" stroke="#262626" stroke-width="10"/>
<path d="M220 170H192C180.402 170 171 179.402 171 191V219C171 230.598 180.402 240 192 240H220C231.598 240 241 230.598 241 219V191C241 179.402 231.598 170 220 170Z" fill="white" stroke="#262626" stroke-width="10"/>
</svg>
